<svg xmlns="http://www.w3.org/2000/svg" viewBox="0 0 703.6819 123.899">
  <title>Asset 12</title>
  <g id="Layer_2" data-name="Layer 2">
    <g id="Layer_1-2" data-name="Layer 1">
      <g>
        <path d="M143.2659,64.969l-.56,1.2607-7.28,17.22h-6.65l22.75-51.45,22.75,51.45h-6.6494l-7.1407-16.8-.56-1.4-8.4-19.74Zm-2.45-1.8193h21.7l2.1006,5.6h-25.9Z" style="fill: #a6624a;isolation: isolate"/>
        <path d="M230.136,34.45V85.9L193.0354,46.98V83.45h-5.95v-51.45l37.1005,38.92V34.45Z" style="fill: #a6624a;isolation: isolate"/>
        <path d="M270.9446,58.6h22.75a30.2475,30.2475,0,0,1-1.54,9.6943,24.7419,24.7419,0,0,1-4.55,8.1553,21.5631,21.5631,0,0,1-7.3848,5.6347,23.1141,23.1141,0,0,1-9.9746,2.0655,25.894,25.894,0,0,1-9.87-1.8555,23.4149,23.4149,0,0,1-7.91-5.25A23.8991,23.8991,0,0,1,247.25,69.03a28.3078,28.3078,0,0,1,0-20.16,23.9091,23.9091,0,0,1,5.2148-8.0147,23.4443,23.4443,0,0,1,7.91-5.25,25.8939,25.8939,0,0,1,9.87-1.8554,27.9947,27.9947,0,0,1,8.3643,1.19,22.1933,22.1933,0,0,1,6.86,3.5,20.6426,20.6426,0,0,1,5.1445,5.74l-4.1992,3.85a16.1316,16.1316,0,0,0-6.44-6.125,20.3763,20.3763,0,0,0-9.7295-2.205,18.1538,18.1538,0,0,0-16.0654,9.205,19.7333,19.7333,0,0,0-2.4854,10.045,19.778,19.778,0,0,0,2.4854,10.01,18.0915,18.0915,0,0,0,16.0654,9.24,18.602,18.602,0,0,0,6.5449-1.085,14.8634,14.8634,0,0,0,5.0049-3.0449,17.4642,17.4642,0,0,0,3.4649-4.48,20.4488,20.4488,0,0,0,1.9951-5.39H270.9446Z" style="fill: #a6624a;isolation: isolate"/>
        <path d="M315.2552,34.45v49h-5.95v-49Zm-2.66,0h24.71v5.6h-24.71Zm0,19.6h23.3106V59.65H312.595Zm0,23.8008h24.71v5.6h-24.71Z" style="fill: #a6624a;isolation: isolate"/>
        <path d="M360.6145,34.45v43.4h19.25v5.6h-25.2v-49Z" style="fill: #a6624a;isolation: isolate"/>
        <path d="M424.0335,83.45h-5.95l5.95-51.45,19.6,35.49,19.6006-35.49,5.95,51.45h-5.95l-3.6406-33.11L443.6331,78.9l-15.96-28.5606Z" style="fill: #a6624a;isolation: isolate"/>
        <path d="M493.6829,64.969l-.56,1.2607-7.28,17.22h-6.65l22.75-51.45,22.75,51.45h-6.6494l-7.1407-16.8-.56-1.4-8.4-19.74Zm-2.45-1.8193h21.7l2.1006,5.6h-25.9Z" style="fill: #a6624a;isolation: isolate"/>
        <path d="M564.1038,34.45h6.6494l-22.75,51.45-22.75-51.45h6.65l16.1,37.94Z" style="fill: #a6624a;isolation: isolate"/>
        <path d="M585.803,64.969l-.5595,1.2607-7.28,17.22h-6.65l22.75-51.45,22.75,51.45h-6.6494l-7.1406-16.8-.56-1.4-8.4-19.74Zm-2.45-1.8193h21.7l2.1006,5.6h-25.9Z" style="fill: #a6624a;isolation: isolate"/>
        <path d="M635.5716,34.45v49h-5.95v-49Zm-2.66,0h10.0108a19.5268,19.5268,0,0,1,8.5048,1.7851,14.5313,14.5313,0,0,1,5.95,5.0752,13.7513,13.7513,0,0,1,2.2041,7.84,13.79,13.79,0,0,1-2.2041,7.8046,14.4445,14.4445,0,0,1-5.95,5.11,19.54,19.54,0,0,1-8.5048,1.7852H632.9114V58.6h10.0108a13.0829,13.0829,0,0,0,5.5644-1.12,8.8107,8.8107,0,0,0,3.78-3.2207,9.1713,9.1713,0,0,0,1.3652-5.1093,9.18,9.18,0,0,0-1.3652-5.11,8.8221,8.8221,0,0,0-3.78-3.22,13.098,13.098,0,0,0-5.5644-1.12H632.9114Zm12.11,24.85,17.5,24.15h-7.35l-16.8008-24.15Z" style="fill: #a6624a;isolation: isolate"/>
        <path d="M681.6321,34.45v49h-5.95v-49Zm-2.66,0h24.71v5.6h-24.71Zm0,19.6h23.3105V59.65H678.972Zm0,23.8008h24.71v5.6h-24.71Z" style="fill: #a6624a;isolation: isolate"/>
      </g>
      <g>
        <path d="M95.3063,23.4237,103.5832,9.01a1.0037,1.0037,0,0,0-.8705-1.5035H95.7176c-.0223-.0005-.0439-.0049-.0663-.0049H75.4938a6.0041,6.0041,0,0,0-5.21,3.02l-5.0364,8.7921a1.0037,1.0037,0,0,1-1.7437-.0031L52.8246.508A1.0037,1.0037,0,0,0,51.0812.5043L40.251,19.3826a1.0038,1.0038,0,0,1-1.7416,0L33.4336,10.521a6.0034,6.0034,0,0,0-5.2094-3.02H8.0668c-.0224,0-.0439.0044-.0663.0049H1.0052A1.0037,1.0037,0,0,0,.1348,9.01l8.277,14.4138a1.0039,1.0039,0,0,1,.1333.5L8.55,68.0726a1.0037,1.0037,0,0,1-.1333.5L2.3777,79.0881a1.004,1.004,0,0,0,0,1l14.2981,24.9a1.0038,1.0038,0,0,0,1.8742-.5l-.0052-85.3336a5.0255,5.0255,0,0,0-.0317-.5633,1.0131,1.0131,0,0,1,1.0292-1.089h5.7835a1.0038,1.0038,0,0,1,.871.5048L46.6923,53.7878a1.0039,1.0039,0,0,1,.1328.4989v7.1759a1.0037,1.0037,0,0,1-1.0037,1.0037H38.87a1.0037,1.0037,0,0,1-1.0037-1.0037V44.1038a1.0042,1.0042,0,0,0-.1325-.4985l-4.7887-8.3689a1.0038,1.0038,0,0,0-1.7431.0011l-2.5471,4.4654a6.003,6.003,0,0,0-.7886,2.9742V99.4733a1.0032,1.0032,0,0,0,.1345.5018l7.9925,13.8436a1.0038,1.0038,0,0,0,1.873-.5019V73.47A1.0038,1.0038,0,0,1,38.87,72.4663H64.9171A1.0038,1.0038,0,0,1,65.9208,73.47v39.8632a1.0037,1.0037,0,0,0,1.8729.5019l7.9926-13.841a1.0039,1.0039,0,0,0,.1345-.5019V42.6778a6.0048,6.0048,0,0,0-.789-2.9755l-2.5757-4.5156a1.0038,1.0038,0,0,0-1.7431-.0011L65.92,43.7364l.0007.0014V61.4626a1.0037,1.0037,0,0,1-1.0037,1.0037H57.8962a1.0037,1.0037,0,0,1-1.0037-1.0037V54.2867a1.0048,1.0048,0,0,1,.1327-.4989L77.5208,18.0063a1.0037,1.0037,0,0,1,.871-.5048h5.7839a1.0131,1.0131,0,0,1,1.0293,1.089,5.0019,5.0019,0,0,0-.0318.5633l-.0052,85.3336a1.0037,1.0037,0,0,0,1.8741.5l14.2981-24.9a1.004,1.004,0,0,0,0-1L95.3019,68.573a1.0034,1.0034,0,0,1-.1333-.5l.0044-44.15A1.0039,1.0039,0,0,1,95.3063,23.4237ZM50.9878,41.1666,45.4334,31.47a1.0037,1.0037,0,0,1-.0009-.9963l5.5892-9.7988a1.0037,1.0037,0,0,1,1.7437,0L58.32,30.4128a1.0038,1.0038,0,0,1-.0009.9962L52.73,41.1666A1.0037,1.0037,0,0,1,50.9878,41.1666Z" style="fill: #a6624a"/>
        <path d="M46.9574,116.4644l4.0235,6.9346a1.0037,1.0037,0,0,0,1.7363,0l4.0391-6.9615a1.0045,1.0045,0,0,0,.1355-.5037V76.1647a1.0038,1.0038,0,0,0-1.0037-1.0038H47.8287a1.0038,1.0038,0,0,0-1.0037,1.0037l-.0031,39.796A1.0035,1.0035,0,0,0,46.9574,116.4644Z" style="fill: #a6624a"/>
      </g>
    </g>
  </g>
</svg>
